<?xml version="1.0" standalone="no"?>
<!DOCTYPE svg PUBLIC "-//W3C//DTD SVG 20010904//EN"
 "http://www.w3.org/TR/2001/REC-SVG-20010904/DTD/svg10.dtd">
<svg version="1.0" xmlns="http://www.w3.org/2000/svg"
 width="700.000000pt" height="700.000000pt" viewBox="0 0 700.000000 700.000000"
 preserveAspectRatio="xMidYMid meet">
<metadata>
Created by potrace 1.11, written by Peter Selinger 2001-2013
</metadata>
<g transform="translate(0.000000,700.000000) scale(0.100000,-0.100000)"
fill="#000000" stroke="none">
<path d="M2090 6325 l0 -65 1350 0 1350 0 0 65 0 65 -1350 0 -1350 0 0 -65z"/>
<path d="M1668 5015 c-244 -40 -467 -156 -640 -332 -221 -227 -359 -555 -397
-947 -14 -141 -14 -511 0 -652 68 -698 453 -1171 1033 -1270 149 -25 414 -16
556 20 115 29 271 99 371 166 85 57 233 208 293 298 132 199 213 431 251 712
21 149 20 650 0 807 -26 195 -89 412 -165 564 -81 160 -233 340 -368 434 -127
88 -270 151 -422 187 -114 26 -389 33 -512 13z m430 -370 c85 -20 193 -72 269
-128 184 -137 315 -410 353 -737 17 -148 8 -735 -14 -843 -40 -202 -120 -395
-210 -509 -96 -121 -234 -209 -390 -248 -101 -25 -303 -28 -409 -4 -287 63
-510 307 -602 659 -44 170 -50 241 -50 590 0 298 3 341 22 446 88 460 325 731
688 789 79 12 264 4 343 -15z"/>
<path d="M3925 4978 c-3 -7 -4 -715 -3 -1573 l3 -1560 998 -3 997 -2 0 170 0
170 -790 0 -790 0 0 555 0 555 680 0 680 0 0 175 0 175 -680 0 -680 0 0 500 0
500 780 0 780 0 0 175 0 175 -985 0 c-779 0 -987 -3 -990 -12z"/>
<path d="M2080 675 l0 -65 1355 0 1355 0 0 65 0 65 -1355 0 -1355 0 0 -65z"/>
</g>
</svg>
